<svg xmlns="http://www.w3.org/2000/svg" viewBox="0 0 200 200">
  <defs>
    <linearGradient id="gradient" x1="0%" y1="0%" x2="100%" y2="100%">
      <stop offset="0%" style="stop-color:#2563eb;stop-opacity:1" />
      <stop offset="100%" style="stop-color:#9333ea;stop-opacity:1" />
    </linearGradient>
  </defs>
  
  <circle cx="100" cy="100" r="90" fill="url(#gradient)" />
  
  <!-- Classic Bitcoin B -->
  <path d="M99.9 30c-38.6 0-70 31.4-70 70s31.4 70 70 70 70-31.4 70-70-31.4-70-70-70zm0 127.3c-31.6 0-57.3-25.7-57.3-57.3S68.3 42.7 99.9 42.7s57.3 25.7 57.3 57.3-25.7 57.3-57.3 57.3z" fill="#fff"/>
  <path d="M100 42.7c31.6 0 57.3 25.7 57.3 57.3S131.6 157.3 100 157.3V42.7z" fill="#fff"/>
  <path d="M100 42.7v114.6c-31.6 0-57.3-25.7-57.3-57.3S68.4 42.7 100 42.7z" fill="#fff"/>
  
  <!-- Integrated music notes -->
  <path d="M110 90a5 5 0 1 1-10 0 5 5 0 0 1 10 0z" fill="#fff"/>
  <path d="M110 90v-10l-10-5v10l10 5z" fill="#fff"/>
  
  <path d="M90 130a5 5 0 1 1-10 0 5 5 0 0 1 10 0z" fill="#fff"/>
  <path d="M90 130v-10l-10-5v10l10 5z" fill="#fff"/>
  
  <!-- Harmony waves -->
  <path d="M60 140c10-5 20-5 30 0s20 5 30 0 20-5 30 0 20 5 30 0" fill="none" stroke="#fff" stroke-width="4" stroke-linecap="round"/>
</svg>